<svg width="128" height="128" viewBox="0 0 128 128" fill="none" xmlns="http://www.w3.org/2000/svg">
  <defs>
    <linearGradient id="bg" x1="20" y1="14" x2="108" y2="112" gradientUnits="userSpaceOnUse">
      <stop stop-color="#16305C"/>
      <stop offset="0.54" stop-color="#2453E6"/>
      <stop offset="1" stop-color="#13A8A4"/>
    </linearGradient>
    <linearGradient id="panel" x1="36" y1="28" x2="88" y2="92" gradientUnits="userSpaceOnUse">
      <stop stop-color="#F8FBFF"/>
      <stop offset="1" stop-color="#DDE9FF"/>
    </linearGradient>
    <linearGradient id="pulse" x1="80" y1="82" x2="104" y2="106" gradientUnits="userSpaceOnUse">
      <stop stop-color="#FFD77A"/>
      <stop offset="1" stop-color="#F29D38"/>
    </linearGradient>
    <filter id="shadow" x="6" y="8" width="116" height="116" filterUnits="userSpaceOnUse" color-interpolation-filters="sRGB">
      <feFlood flood-opacity="0" result="BackgroundImageFix"/>
      <feColorMatrix in="SourceAlpha" type="matrix" values="0 0 0 0 0 0 0 0 0 0 0 0 0 0 0 0 0 0 127 0" result="hardAlpha"/>
      <feOffset dy="8"/>
      <feGaussianBlur stdDeviation="8"/>
      <feColorMatrix type="matrix" values="0 0 0 0 0.041 0 0 0 0 0.102 0 0 0 0 0.221 0 0 0 0.28 0"/>
      <feBlend mode="normal" in2="BackgroundImageFix" result="effect1_dropShadow_1_6"/>
      <feBlend mode="normal" in="SourceGraphic" in2="effect1_dropShadow_1_6" result="shape"/>
    </filter>
  </defs>
  <g filter="url(#shadow)">
    <rect x="14" y="12" width="100" height="100" rx="28" fill="url(#bg)"/>
    <path d="M36 36C36 29.3726 41.3726 24 48 24H80C86.6274 24 92 29.3726 92 36V68C92 74.6274 86.6274 80 80 80H63.4L48.4 93.2C47.2338 94.2261 45.4 93.3978 45.4 91.8444V80H48C41.3726 80 36 74.6274 36 68V36Z" fill="url(#panel)"/>
    <rect x="47" y="38" width="34" height="6" rx="3" fill="#1F49C5"/>
    <rect x="47" y="51" width="25" height="6" rx="3" fill="#12A6A1"/>
    <rect x="47" y="64" width="18" height="6" rx="3" fill="#F0A63B"/>
    <circle cx="91" cy="92" r="13" fill="url(#pulse)"/>
    <path d="M85 92H88.5L90.7 86.6L93.2 97.4L95.5 90.2H99" stroke="#17305C" stroke-width="4" stroke-linecap="round" stroke-linejoin="round"/>
  </g>
</svg>
